<svg id="icons" xmlns="http://www.w3.org/2000/svg" viewBox="0 0 96 96"><defs><style>.cls-1{fill:#218dbf;}.cls-2{fill:#49dbe5;}.cls-3{fill:#f3aa9b;}.cls-4{fill:#f7eade;}.cls-5{fill:#ee856f;}.cls-6{fill:none;stroke:#2b3444;stroke-linecap:round;stroke-linejoin:round;stroke-width:2px;}</style></defs><title>gift</title><g id="_Group_" data-name="&lt;Group&gt;"><polygon class="cls-1" points="42 42 42 81 20 81 20 42 40 42 42 42"/><polygon class="cls-1" points="56 42 76 42 76 81 54 81 54 42 56 42"/><rect class="cls-2" x="42" y="42" width="12" height="39"/><polygon class="cls-2" points="56 30 56 42 54 42 42 42 40 42 40 30 42 30 54 30 56 30"/><polygon class="cls-1" points="40 30 40 42 20 42 15 42 15 30 26.87 30 40 30"/><polygon class="cls-1" points="81 30 81 42 76 42 56 42 56 30 69.13 30 81 30"/><circle class="cls-3" cx="84" cy="58" r="3"/><circle class="cls-4" cx="15" cy="19" r="2"/><circle class="cls-2" cx="11" cy="71" r="2"/><path class="cls-5" d="M54,30H42a5.99,5.99,0,0,1,.58-2.58,6.932,6.932,0,0,1,.43-.75,6,6,0,0,1,9.98,0,6.932,6.932,0,0,1,.43.75A5.99,5.99,0,0,1,54,30Z"/><path class="cls-3" d="M43.01,26.67a6.932,6.932,0,0,0-.43.75A5.99,5.99,0,0,0,42,30H26.87c-3.85-2.23-5.65-5.5-3.37-10.11,4.57-9.2,15.82-4.11,22.3,4.53A6,6,0,0,0,43.01,26.67Z"/><path class="cls-3" d="M56,30H54a5.99,5.99,0,0,0-.58-2.58,6.932,6.932,0,0,0-.43-.75,6,6,0,0,0-2.79-2.25c6.48-8.64,17.73-13.73,22.3-4.53,2.28,4.61.48,7.88-3.37,10.11Z"/><polyline class="cls-6" points="56 30 69.13 30 81 30 81 42 76 42"/><polyline class="cls-6" points="20 42 15 42 15 30 26.87 30 40 30"/><polyline class="cls-6" points="54 81 76 81 76 42 56 42"/><polyline class="cls-6" points="40 42 20 42 20 81 42 81"/><polyline class="cls-6" points="42 42 42 81 54 81 54 42"/><polygon class="cls-6" points="56 42 54 42 42 42 40 42 40 30 42 30 54 30 56 30 56 42"/><path class="cls-6" d="M42,30a5.99,5.99,0,0,1,.58-2.58,6.932,6.932,0,0,1,.43-.75,6,6,0,0,1,9.98,0,6.932,6.932,0,0,1,.43.75A5.99,5.99,0,0,1,54,30"/><path class="cls-6" d="M26.87,30c-3.85-2.23-5.65-5.5-3.37-10.11,4.57-9.2,15.82-4.11,22.3,4.53"/><path class="cls-6" d="M50.2,24.42c6.48-8.64,17.73-13.73,22.3-4.53,2.28,4.61.48,7.88-3.37,10.11"/><path class="cls-6" d="M35,22a13.717,13.717,0,0,1,8.01,4.67"/><path class="cls-6" d="M34,26a26.009,26.009,0,0,1,8.58,1.42"/><path class="cls-6" d="M52.99,26.67A13.717,13.717,0,0,1,61,22"/><path class="cls-6" d="M53.42,27.42A26.009,26.009,0,0,1,62,26"/><circle class="cls-6" cx="84" cy="58" r="3"/><circle class="cls-6" cx="15" cy="19" r="2"/><circle class="cls-6" cx="11" cy="71" r="2"/></g></svg>